<svg width="192" height="192" viewBox="0 0 192 192" fill="none" xmlns="http://www.w3.org/2000/svg">
<path d="M0 0H192V192H0V0Z" fill="#F6D7B0"/>
<path d="M70 55.625L59.125 53.0625V46.0625L83.4375 45.375H97.5C106.542 45.375 113.604 47.4375 118.688 51.5625C123.771 55.6458 126.312 61.2708 126.312 68.4375C126.312 80.9792 120.771 89.2917 109.688 93.375C111.729 95.1667 114.292 99.0208 117.375 104.938L127.5 125.25L136.562 127.312V135H117.375L106.5 111.312C104.458 106.896 102.667 103.646 101.125 101.562C99.5833 99.4375 97.9375 97.9792 96.1875 97.1875C94.4375 96.3542 92.1042 95.9375 89.1875 95.9375H83.4375V124.75L94.3125 127.312V135H59.125V127.312L70 124.75V55.625ZM93.0625 86.375C99.2708 86.375 104.125 84.9792 107.625 82.1875C111.125 79.3542 112.875 75.4167 112.875 70.375C112.875 66.125 111.375 62.6042 108.375 59.8125C105.417 57.0208 101.583 55.625 96.875 55.625H83.4375V86.375H93.0625Z" fill="#618868"/>
</svg>