<svg width="394" height="456" viewBox="0 0 394 456" fill="none" xmlns="http://www.w3.org/2000/svg">
<path d="M55.25 52.9238L0.0253906 39.9111V4.36426L123.487 0.873047H194.898C240.813 0.873047 276.677 11.3467 302.491 32.2939C328.305 53.0296 341.212 81.5941 341.212 117.987C341.212 181.675 313.071 223.887 256.788 244.623C267.156 253.721 280.169 273.293 295.826 303.339L347.242 406.488L393.263 416.962V456H295.826L240.602 335.712C230.234 313.284 221.135 296.78 213.307 286.2C205.478 275.409 197.12 268.004 188.233 263.983C179.347 259.752 167.498 257.636 152.687 257.636H123.487V403.949L178.712 416.962V456H0.0253906V416.962L55.25 403.949V52.9238ZM172.364 209.076C203.891 209.076 228.541 201.988 246.314 187.812C264.088 173.424 272.975 153.428 272.975 127.826C272.975 106.244 265.357 88.3649 250.123 74.1885C235.1 60.012 215.634 52.9238 191.725 52.9238H123.487V209.076H172.364Z" fill="#618868"/>
</svg>